<svg xmlns="http://www.w3.org/2000/svg" xmlns:xlink="http://www.w3.org/1999/xlink" width="500" zoomAndPan="magnify" viewBox="0 0 375 374.999991" height="500" preserveAspectRatio="xMidYMid meet" version="1.0"><defs><clipPath id="5f5ab8bf95"><path d="M 46.875 0 L 328.125 0 L 328.125 375 L 46.875 375 Z M 46.875 0 " clip-rule="nonzero"/></clipPath></defs><rect x="-37.5" width="450" fill="#ffffff" y="-37.499999" height="449.999989" fill-opacity="1"/><rect x="-37.5" width="450" fill="#ffffff" y="-37.499999" height="449.999989" fill-opacity="1"/><rect x="-37.5" width="450" fill="#ffffff" y="-37.499999" height="449.999989" fill-opacity="1"/><g clip-path="url(#5f5ab8bf95)"><path fill="#ffffff" d="M 125.65625 124.1875 L 125.65625 202.527344 L 187.496094 202.527344 C 204.363281 202.527344 219.800781 195.515625 231.0625 184.257812 C 242.320312 172.996094 249.332031 157.554688 249.332031 140.691406 C 249.332031 123.824219 242.324219 108.382812 231.0625 97.121094 C 219.800781 85.863281 204.363281 78.851562 187.496094 78.851562 L 125.65625 78.851562 L 46.875 0.0664062 L 187.496094 0.0664062 C 226.109375 0.0664062 261.28125 15.933594 286.765625 41.421875 C 312.253906 66.90625 328.117188 102.078125 328.117188 140.691406 C 328.117188 179.300781 312.253906 214.472656 286.765625 239.957031 C 261.28125 265.441406 226.109375 281.3125 187.496094 281.3125 L 125.660156 281.3125 L 125.660156 374.9375 L 46.875 305.796875 L 46.875 124.1875 Z M 125.65625 124.1875 " fill-opacity="1" fill-rule="nonzero"/></g></svg>